<!-- Creator: CorelDRAW X8 -->
<svg xmlns="http://www.w3.org/2000/svg" xml:space="preserve" width="1180px" height="620px" version="1.1" style="shape-rendering:geometricPrecision; text-rendering:geometricPrecision; image-rendering:optimizeQuality; fill-rule:evenodd; clip-rule:evenodd"
viewBox="0 0 77020 40448"
 xmlns:xlink="http://www.w3.org/1999/xlink">
 <defs>
  <style type="text/css">
   <![CDATA[
    .logo0 {fill:#26221F;fill-rule:nonzero}
    .logo2 {fill:#222322;fill-rule:nonzero}
    .logo1 {fill:#76BA5D;fill-rule:nonzero}
    .logo3 {fill:#77B852;fill-rule:nonzero}
   ]]>
  </style>
 </defs>
 <g>
  <metadata/>
  <g>
   <path class="logo0" d="M22576 12155c-1798,0 -3261,-1463 -3261,-3261 0,-1798 1463,-3261 3261,-3261 1799,0 3261,1463 3261,3261 0,1798 -1462,3261 -3261,3261zm0 -4865l0 0c-884,0 -1604,720 -1604,1604 0,885 720,1604 1604,1604 885,0 1604,-719 1604,-1604 0,-884 -719,-1604 -1604,-1604z"/>
   <path class="logo0" d="M22576 40448c-2124,0 -3854,-1729 -3854,-3854 0,-520 102,-1024 303,-1500l1527 643c-114,271 -173,560 -173,857 0,1211 986,2196 2197,2196 1212,0 2197,-985 2197,-2196 0,-306 -60,-600 -180,-874l1518 -664c212,485 319,1002 319,1538 0,2125 -1729,3854 -3854,3854z"/>
   <path class="logo0" d="M28128 11585c-1776,-697 -3701,-1097 -5617,-1083 -1068,8 -1068,1657 0,1657 44,0 87,0 131,0 1069,0 1067,-1644 0,-1657 -1624,-19 -3284,282 -4823,778 -2953,950 -4577,2914 -5523,5787 -1405,4266 -1439,8853 -2835,13152 -316,971 -702,1917 -1142,2837 -241,503 -719,1042 -841,1588 -195,870 164,1473 1058,1643 1530,291 3483,8 5060,8 2642,0 5283,0 7925,0 4333,0 8665,0 12998,0 1069,0 1069,-1656 0,-1656 -7646,0 -15293,0 -22939,0 -657,0 -1312,5 -1968,26 -710,23 -461,337 -55,-398 341,-617 608,-1274 880,-1924 1527,-3637 2024,-7504 2654,-11362 590,-3605 1496,-6777 5168,-8103 1378,-498 2917,-736 4383,-719 0,-552 0,-1104 0,-1657 -44,0 -87,0 -131,0 0,553 0,1105 0,1657 1782,-13 3525,375 5176,1023 996,391 1423,-1211 441,-1597z"/>
   <path class="logo0" d="M10634 36295c5494,0 10989,0 16484,0 2315,0 4631,0 6947,0 966,0 2610,394 3391,-388 1023,-1022 -927,-3480 -1290,-4374 -396,-977 -1999,-551 -1598,440 349,860 715,1701 1151,2521 168,496 265,556 292,181 -536,21 -1085,-28 -1622,-36 -568,-9 -1138,0 -1706,0 -2573,0 -5146,0 -7718,0 -4777,0 -9554,0 -14331,0 -1069,0 -1069,1656 0,1656z"/>
   <path class="logo1" d="M7229 15822c934,-3773 3617,-6864 7137,-8357l0 1827c-2605,1318 -4597,3679 -5422,6530l-1715 0z"/>
   <path class="logo1" d="M3415 15822c1092,-5841 5368,-10574 10951,-12325l0 1748c-4666,1653 -8230,5654 -9262,10577l-1689 0z"/>
   <path class="logo1" d="M0 15822c1181,-7704 6919,-13926 14366,-15822l0 1716c-6529,1831 -11544,7319 -12686,14106l-1680 0z"/>
   <g>
    <path class="logo2" d="M22490 20503l-326 -856 -2773 0 -325 875c-128,341 -236,572 -326,691 -90,119 -237,179 -442,179 -173,0 -327,-64 -460,-191 -134,-127 -200,-271 -200,-433 0,-93 15,-189 46,-288 31,-99 82,-237 154,-414l1744 -4429c50,-127 110,-280 179,-458 70,-179 145,-327 224,-445 79,-117 183,-213 311,-286 129,-72 288,-109 477,-109 193,0 353,37 482,109 129,73 232,167 311,282 80,115 146,238 201,370 54,132 123,307 207,528l1781 4401c140,335 210,578 210,730 0,158 -66,303 -198,435 -132,132 -291,198 -477,198 -108,0 -202,-19 -279,-58 -77,-39 -143,-92 -195,-158 -53,-67 -110,-170 -170,-307 -61,-139 -113,-260 -156,-366zm-2736 -1893l0 0 2038 0 -1028 -2815 -1010 2815z"/>
    <path class="logo2" d="M26063 16940l0 153c239,-295 487,-511 744,-649 258,-138 549,-207 875,-207 391,0 750,101 1079,302 329,202 589,497 780,885 190,387 286,846 286,1377 0,390 -55,750 -165,1076 -111,328 -262,602 -454,824 -192,222 -420,393 -682,512 -262,119 -543,179 -844,179 -363,0 -668,-73 -914,-219 -247,-146 -482,-359 -705,-642l0 1908c0,558 -203,837 -609,837 -240,0 -398,-72 -475,-216 -78,-145 -117,-355 -117,-631l0 -5480c0,-242 53,-423 159,-542 105,-120 249,-179 433,-179 179,0 326,61 439,184 113,122 170,298 170,528zm2489 1847l0 0c0,-335 -51,-623 -154,-863 -102,-241 -244,-425 -425,-554 -182,-129 -383,-193 -603,-193 -350,0 -646,138 -886,414 -240,276 -361,682 -361,1219 0,505 120,898 359,1179 238,281 535,421 888,421 211,0 407,-61 586,-183 180,-123 324,-307 433,-552 109,-245 163,-541 163,-888z"/>
    <path class="logo2" d="M32018 16940l0 153c239,-295 487,-511 744,-649 258,-138 549,-207 875,-207 391,0 750,101 1079,302 329,202 589,497 779,885 191,387 287,846 287,1377 0,390 -55,750 -166,1076 -110,328 -261,602 -453,824 -193,222 -420,393 -682,512 -262,119 -543,179 -844,179 -363,0 -668,-73 -914,-219 -247,-146 -482,-359 -705,-642l0 1908c0,558 -203,837 -610,837 -238,0 -397,-72 -474,-216 -78,-145 -116,-355 -116,-631l0 -5480c0,-242 52,-423 158,-542 105,-120 249,-179 432,-179 180,0 327,61 440,184 113,122 170,298 170,528zm2489 1847l0 0c0,-335 -51,-623 -154,-863 -102,-241 -244,-425 -425,-554 -182,-129 -383,-193 -603,-193 -350,0 -646,138 -886,414 -240,276 -361,682 -361,1219 0,505 120,898 359,1179 238,281 534,421 888,421 211,0 407,-61 586,-183 180,-123 324,-307 433,-552 109,-245 163,-541 163,-888z"/>
    <path class="logo2" d="M41555 18810c0,378 -59,727 -177,1046 -117,320 -288,594 -511,824 -224,230 -491,405 -801,528 -310,123 -659,184 -1047,184 -384,0 -730,-62 -1037,-186 -307,-124 -573,-302 -798,-533 -225,-231 -395,-504 -512,-819 -116,-315 -174,-663 -174,-1044 0,-385 59,-737 177,-1056 118,-320 287,-593 507,-819 220,-226 487,-401 800,-523 313,-123 659,-184 1037,-184 385,0 734,62 1047,186 314,124 582,301 805,531 224,229 394,502 509,818 117,317 175,665 175,1047zm-1275 0l0 0c0,-518 -113,-921 -342,-1210 -228,-288 -534,-432 -919,-432 -248,0 -467,64 -655,193 -189,128 -335,318 -438,570 -102,251 -154,544 -154,879 0,332 51,622 152,870 101,248 245,438 433,570 187,131 408,198 662,198 385,0 691,-146 919,-435 229,-291 342,-692 342,-1203z"/>
    <path class="logo2" d="M43197 15637c-177,0 -328,-54 -453,-163 -126,-109 -189,-262 -189,-460 0,-181 65,-329 193,-445 129,-116 279,-174 449,-174 165,0 310,53 437,158 128,105 191,259 191,461 0,195 -62,348 -186,458 -124,110 -271,165 -442,165zm628 1312l0 0 0 3670c0,255 -60,447 -181,577 -121,131 -275,196 -461,196 -186,0 -337,-67 -453,-200 -117,-133 -175,-324 -175,-573l0 -3633c0,-251 58,-440 175,-567 116,-128 267,-191 453,-191 186,0 340,63 461,191 121,127 181,304 181,530z"/>
    <path class="logo2" d="M46291 16930l0 154c224,-295 467,-511 733,-649 265,-138 570,-207 914,-207 335,0 634,72 898,218 264,147 461,352 591,619 83,155 138,323 162,502 25,181 38,410 38,689l0 2363c0,255 -59,447 -174,577 -117,131 -268,196 -454,196 -190,0 -343,-67 -461,-200 -118,-133 -177,-324 -177,-573l0 -2116c0,-419 -58,-739 -174,-961 -116,-222 -349,-332 -696,-332 -226,0 -433,67 -619,202 -186,135 -322,320 -409,556 -62,189 -93,543 -93,1061l0 1590c0,258 -60,451 -179,580 -120,128 -274,193 -463,193 -183,0 -333,-67 -451,-200 -118,-133 -177,-324 -177,-573l0 -3670c0,-242 53,-423 158,-542 105,-120 250,-179 433,-179 112,0 212,26 302,79 90,52 163,132 217,237 54,106 81,235 81,386z"/>
    <path class="logo2" d="M50962 16339l140 0 0 -763c0,-204 5,-365 15,-481 12,-116 42,-216 91,-300 50,-87 122,-157 215,-212 93,-54 196,-81 311,-81 161,0 307,60 438,181 87,81 141,179 165,296 23,116 35,281 35,495l0 865 465 0c179,0 317,43 411,128 95,86 142,195 142,329 0,170 -67,289 -202,358 -135,68 -328,102 -579,102l-237 0 0 2335c0,199 7,352 20,459 15,106 52,194 112,260 61,67 159,100 296,100 74,0 174,-13 302,-39 127,-27 226,-40 298,-40 102,0 194,41 277,123 82,83 123,184 123,305 0,205 -112,361 -335,470 -223,109 -545,163 -963,163 -397,0 -698,-67 -903,-200 -205,-133 -339,-318 -402,-554 -64,-235 -95,-550 -95,-944l0 -2438 -168 0c-183,0 -323,-44 -419,-130 -96,-87 -144,-197 -144,-330 0,-134 51,-243 151,-329 101,-85 248,-128 440,-128z"/>
    <path class="logo2" d="M58489 18903l0 1689c0,267 -60,467 -181,600 -121,133 -281,200 -479,200 -193,0 -349,-67 -467,-200 -120,-133 -180,-333 -180,-600l0 -2024c0,-319 -11,-568 -33,-745 -21,-176 -80,-321 -176,-434 -96,-114 -248,-170 -456,-170 -416,0 -690,142 -822,428 -131,285 -197,695 -197,1228l0 1717c0,263 -60,463 -180,597 -118,135 -276,203 -471,203 -193,0 -350,-68 -473,-203 -122,-134 -183,-334 -183,-597l0 -3634c0,-239 55,-420 165,-544 110,-124 255,-186 435,-186 174,0 319,58 434,174 117,116 175,277 175,482l0 121c220,-264 456,-458 707,-582 252,-124 530,-186 838,-186 319,0 594,63 824,191 229,127 418,319 567,577 214,-261 443,-454 688,-579 245,-126 517,-189 815,-189 347,0 646,68 897,205 252,136 439,332 563,586 109,230 163,591 163,1084l0 2480c0,267 -60,467 -181,600 -121,133 -281,200 -479,200 -193,0 -350,-68 -473,-203 -122,-134 -184,-334 -184,-597l0 -2136c0,-273 -11,-491 -34,-655 -24,-165 -86,-303 -189,-415 -102,-111 -257,-167 -465,-167 -168,0 -326,49 -477,149 -150,99 -267,232 -351,400 -93,214 -140,592 -140,1135z"/>
    <path class="logo2" d="M66240 19122l-2484 0c3,288 61,542 174,763 113,220 264,386 451,497 188,112 395,168 622,168 152,0 290,-18 416,-54 126,-35 247,-91 365,-167 118,-76 227,-158 326,-244 99,-87 228,-205 386,-354 65,-56 158,-84 279,-84 130,0 236,36 317,108 80,71 120,171 120,302 0,114 -44,248 -135,402 -90,153 -225,301 -407,442 -181,141 -409,258 -684,351 -274,93 -589,140 -946,140 -816,0 -1450,-233 -1903,-698 -453,-466 -679,-1096 -679,-1893 0,-376 56,-724 167,-1045 112,-321 275,-596 489,-826 214,-229 477,-405 791,-528 313,-122 660,-183 1042,-183 496,0 921,104 1277,314 355,209 621,479 797,811 178,332 266,670 266,1015 0,319 -92,526 -275,621 -182,94 -440,142 -772,142zm-2484 -722l0 0 2302 0c-30,-434 -148,-759 -351,-974 -203,-216 -470,-324 -802,-324 -317,0 -576,110 -779,328 -204,219 -327,542 -370,970z"/>
    <path class="logo2" d="M69511 16930l0 154c223,-295 467,-511 733,-649 265,-138 570,-207 913,-207 335,0 635,72 898,218 264,147 461,352 591,619 84,155 138,323 163,502 25,181 37,410 37,689l0 2363c0,255 -58,447 -174,577 -117,131 -268,196 -454,196 -189,0 -343,-67 -460,-200 -118,-133 -177,-324 -177,-573l0 -2116c0,-419 -58,-739 -174,-961 -117,-222 -349,-332 -696,-332 -226,0 -433,67 -619,202 -186,135 -322,320 -409,556 -62,189 -93,543 -93,1061l0 1590c0,258 -60,451 -179,580 -120,128 -274,193 -463,193 -183,0 -334,-67 -452,-200 -117,-133 -176,-324 -176,-573l0 -3670c0,-242 52,-423 158,-542 105,-120 250,-179 433,-179 111,0 212,26 302,79 90,52 162,132 216,237 54,106 82,235 82,386z"/>
    <path class="logo2" d="M74182 16339l139 0 0 -763c0,-204 6,-365 17,-481 10,-116 41,-216 91,-300 49,-87 120,-157 213,-212 93,-54 197,-81 312,-81 161,0 307,60 437,181 87,81 142,179 165,296 24,116 35,281 35,495l0 865 465 0c180,0 317,43 412,128 95,86 142,195 142,329 0,170 -67,289 -202,358 -135,68 -328,102 -579,102l-238 0 0 2335c0,199 7,352 21,459 14,106 52,194 112,260 61,67 159,100 295,100 75,0 176,-13 303,-39 127,-27 226,-40 298,-40 102,0 194,41 276,123 82,83 124,184 124,305 0,205 -112,361 -335,470 -224,109 -544,163 -963,163 -397,0 -698,-67 -903,-200 -204,-133 -339,-318 -402,-554 -64,-235 -96,-550 -96,-944l0 -2438 -167 0c-183,0 -323,-44 -419,-130 -96,-87 -144,-197 -144,-330 0,-134 50,-243 151,-329 101,-85 248,-128 440,-128z"/>
    <path class="logo3" d="M19982 26644l-484 0 0 2191c0,288 -63,501 -190,638 -128,136 -293,204 -498,204 -220,0 -391,-72 -512,-214 -121,-143 -181,-352 -181,-628l0 -5248c0,-298 67,-513 200,-646 133,-134 349,-200 646,-200l2248 0c310,0 575,13 795,39 220,26 419,80 595,161 215,89 404,218 568,386 165,167 289,362 375,583 85,223 128,457 128,706 0,508 -144,914 -431,1218 -287,304 -722,520 -1305,647 245,130 480,322 703,577 223,254 422,524 598,812 175,286 311,546 409,776 98,232 147,390 147,477 0,90 -29,180 -87,268 -57,88 -135,158 -235,209 -99,51 -213,77 -344,77 -155,0 -285,-36 -390,-109 -106,-73 -197,-165 -272,-277 -77,-112 -180,-277 -310,-493l-554 -921c-198,-338 -376,-596 -532,-772 -157,-178 -316,-299 -477,-364 -162,-65 -365,-97 -610,-97zm791 -2866l0 0 -1275 0 0 1875 1238 0c332,0 611,-29 837,-86 227,-57 400,-155 519,-293 120,-138 179,-328 179,-570 0,-190 -48,-356 -144,-500 -96,-145 -229,-252 -400,-324 -161,-68 -479,-102 -954,-102z"/>
    <path class="logo3" d="M28198 27407l-2484 0c3,288 61,542 174,763 114,220 264,386 452,498 187,111 394,167 621,167 152,0 290,-18 416,-53 126,-36 248,-92 365,-168 118,-76 227,-157 326,-244 99,-87 228,-205 386,-354 65,-56 158,-84 279,-84 131,0 236,36 317,107 80,72 121,173 121,303 0,115 -45,249 -135,402 -90,154 -226,301 -407,442 -182,141 -410,258 -684,351 -275,93 -590,140 -947,140 -816,0 -1450,-233 -1903,-698 -453,-465 -679,-1096 -679,-1893 0,-376 56,-724 168,-1045 111,-321 274,-596 488,-826 214,-229 477,-405 791,-527 313,-123 660,-184 1042,-184 496,0 922,104 1277,314 355,209 621,480 798,811 177,332 265,670 265,1015 0,319 -91,526 -274,621 -184,94 -441,142 -773,142zm-2484 -721l0 0 2303 0c-31,-435 -148,-760 -351,-975 -204,-216 -471,-324 -803,-324 -316,0 -576,110 -779,329 -203,218 -327,542 -370,970z"/>
    <path class="logo3" d="M34539 27188l0 1689c0,267 -60,467 -181,600 -121,133 -281,200 -479,200 -193,0 -348,-67 -468,-200 -119,-133 -179,-333 -179,-600l0 -2024c0,-319 -11,-567 -33,-744 -21,-177 -80,-322 -176,-435 -96,-113 -248,-170 -456,-170 -416,0 -690,142 -821,428 -132,285 -198,695 -198,1228l0 1717c0,264 -60,463 -179,597 -120,136 -277,203 -472,203 -193,0 -350,-67 -473,-203 -122,-134 -183,-333 -183,-597l0 -3634c0,-238 55,-420 165,-544 110,-124 255,-186 435,-186 174,0 319,58 435,175 116,116 174,276 174,481l0 121c221,-263 456,-458 707,-581 252,-125 531,-187 838,-187 319,0 594,64 823,191 230,127 419,319 568,577 214,-261 443,-453 688,-579 245,-126 517,-189 814,-189 348,0 647,68 898,205 252,137 439,332 563,586 109,230 163,591 163,1084l0 2480c0,267 -61,467 -181,600 -121,133 -281,200 -479,200 -193,0 -350,-67 -473,-203 -122,-134 -183,-333 -183,-597l0 -2136c0,-273 -12,-491 -35,-655 -24,-165 -86,-303 -189,-415 -102,-111 -257,-167 -465,-167 -167,0 -326,49 -477,149 -150,99 -267,232 -351,400 -93,214 -140,592 -140,1135z"/>
    <path class="logo3" d="M39387 23922c-177,0 -328,-54 -453,-162 -126,-109 -189,-263 -189,-461 0,-180 64,-328 193,-445 129,-116 279,-174 449,-174 165,0 310,53 437,158 128,105 191,259 191,461 0,195 -62,348 -186,458 -124,110 -272,165 -442,165zm628 1312l0 0 0 3670c0,255 -60,447 -181,578 -121,130 -275,195 -461,195 -186,0 -338,-67 -453,-200 -117,-133 -175,-324 -175,-573l0 -3633c0,-251 58,-440 175,-567 115,-127 267,-191 453,-191 186,0 340,64 461,191 121,127 181,304 181,530z"/>
    <path class="logo3" d="M42480 25215l0 154c224,-295 468,-511 734,-649 265,-138 569,-207 914,-207 335,0 634,73 898,219 263,146 460,352 591,618 83,156 137,323 162,503 25,180 37,409 37,688l0 2363c0,255 -58,447 -174,578 -116,130 -267,195 -453,195 -190,0 -343,-67 -461,-200 -118,-133 -177,-324 -177,-573l0 -2116c0,-419 -58,-739 -174,-961 -117,-222 -349,-332 -695,-332 -227,0 -434,67 -620,202 -186,135 -323,320 -409,556 -62,189 -93,543 -93,1061l0 1590c0,258 -60,451 -180,580 -119,128 -273,193 -462,193 -183,0 -334,-67 -451,-200 -118,-133 -177,-324 -177,-573l0 -3670c0,-242 53,-423 158,-542 105,-119 249,-179 433,-179 111,0 212,26 302,79 90,53 162,132 216,237 55,106 81,235 81,386z"/>
    <path class="logo3" d="M50562 28951l0 -125c-171,195 -339,354 -505,477 -166,122 -346,215 -539,279 -194,63 -406,95 -636,95 -304,0 -585,-65 -844,-193 -259,-129 -483,-313 -672,-551 -189,-239 -333,-519 -431,-842 -98,-323 -146,-672 -146,-1047 0,-794 193,-1413 582,-1857 387,-443 897,-665 1530,-665 366,0 674,63 926,189 251,126 496,318 735,579l0 -1875c0,-261 52,-457 156,-591 103,-133 252,-200 444,-200 192,0 340,62 445,184 103,122 155,303 155,542l0 5601c0,242 -56,424 -167,544 -112,121 -257,182 -433,182 -174,0 -317,-63 -430,-188 -114,-126 -170,-305 -170,-538zm-2499 -1865l0 0c0,344 54,637 161,879 107,242 254,424 440,547 186,122 389,183 609,183 223,0 427,-58 611,-174 185,-117 333,-294 443,-535 110,-241 165,-540 165,-900 0,-339 -55,-629 -165,-873 -110,-243 -259,-429 -446,-558 -188,-128 -394,-193 -617,-193 -233,0 -441,66 -624,198 -183,132 -324,321 -425,567 -101,247 -152,533 -152,859z"/>
    <path class="logo3" d="M56582 27407l-2484 0c3,288 61,542 174,763 113,220 264,386 451,498 188,111 395,167 621,167 152,0 291,-18 417,-53 125,-36 247,-92 365,-168 118,-76 226,-157 326,-244 99,-87 227,-205 386,-354 65,-56 158,-84 279,-84 130,0 236,36 317,107 80,72 120,173 120,303 0,115 -45,249 -135,402 -90,154 -225,301 -407,442 -181,141 -410,258 -684,351 -274,93 -590,140 -946,140 -816,0 -1450,-233 -1904,-698 -452,-465 -678,-1096 -678,-1893 0,-376 56,-724 167,-1045 112,-321 275,-596 489,-826 214,-229 477,-405 790,-527 314,-123 661,-184 1042,-184 497,0 923,104 1277,314 356,209 622,480 798,811 177,332 265,670 265,1015 0,319 -91,526 -274,621 -183,94 -440,142 -772,142zm-2484 -721l0 0 2302 0c-30,-435 -148,-760 -351,-975 -203,-216 -470,-324 -803,-324 -316,0 -575,110 -779,329 -203,218 -326,542 -369,970z"/>
    <path class="logo3" d="M59960 27844l0 1060c0,258 -61,451 -182,580 -121,128 -274,193 -461,193 -183,0 -333,-65 -451,-195 -118,-131 -177,-323 -177,-578l0 -3535c0,-570 206,-856 619,-856 211,0 363,67 456,200 93,133 145,331 153,591 153,-260 309,-458 468,-591 160,-133 373,-200 640,-200 266,0 526,67 777,200 251,133 377,310 377,530 0,156 -54,284 -161,384 -107,101 -223,151 -346,151 -47,0 -160,-28 -338,-86 -178,-57 -336,-86 -472,-86 -186,0 -338,49 -456,147 -118,97 -209,242 -274,435 -66,192 -110,421 -135,686 -25,265 -37,589 -37,970z"/>
   </g>
  </g>
 </g>
</svg>
